<?xml version="1.0" encoding="utf-8"?>
<!-- Generator: Adobe Illustrator 26.3.1, SVG Export Plug-In . SVG Version: 6.00 Build 0)  -->
<svg version="1.1" id="圖層_1" xmlns="http://www.w3.org/2000/svg" xmlns:xlink="http://www.w3.org/1999/xlink" x="0px" y="0px"
	 viewBox="0 0 180 180" style="enable-background:new 0 0 180 180;" xml:space="preserve">
<style type="text/css">
	.st0{fill:#221714;}
</style>
<g>
	<g>
		<path class="st0" d="M81.59,44.61C87.98,53.8,91.96,65,90.97,76.29c-0.86,9.84-6.12,19.09-14.43,24.53
			c-2.25,1.47-4.69,2.66-7.27,3.42c-1.23,0.37-2.49,0.66-3.77,0.83c-0.68,0.09-1.37,0.15-2.06,0.17c-0.24,0.01-0.47,0.02-0.71,0.02
			c-0.24,0-0.48,0-0.71,0c-0.3-0.06-0.33,0.04-0.07,0.29c-0.05,0.39-0.1,0.77-0.15,1.16c0.03-0.07,0.07-0.13,0.1-0.2
			c0.86-1.72-1.72-3.24-2.59-1.51c-0.64,1.27-0.05,2.48,1.23,3.01c1.23,0.51,2.85,0.28,4.14,0.16c2.71-0.25,5.36-0.88,7.87-1.89
			c5.14-2.08,9.7-5.48,13.24-9.76c7.83-9.46,9.82-21.9,7.2-33.73c-1.57-7.06-4.68-13.76-8.8-19.68
			C83.08,41.53,80.48,43.02,81.59,44.61L81.59,44.61z"/>
	</g>
</g>
<g>
	<g>
		<path class="st0" d="M82.31,43.76c7.78,3.79,14.98,8.64,19.48,16.22c4.18,7.05,6.14,15.41,5.6,23.58
			c-0.51,7.67-3.43,15.11-8.81,20.68c-4.96,5.13-11.82,9.16-19.01,9.89c-4.01,0.41-7.72-0.41-11.39-2.03
			c-1.36-0.6-2.7-1.3-3.76-2.36c-1.09-1.09-1.83-2.46-2.52-3.82c-0.88-1.72-3.46-0.2-2.59,1.51c1.41,2.78,3.19,5.1,5.98,6.59
			c3.31,1.76,7.04,2.98,10.79,3.18c7.96,0.42,15.81-3.24,21.81-8.25c13.69-11.43,15.59-31.29,8.38-46.88
			c-2.19-4.73-5.29-9.02-9.21-12.46c-3.96-3.48-8.53-6.15-13.25-8.45C82.09,40.33,80.57,42.92,82.31,43.76L82.31,43.76z"/>
	</g>
</g>
<g>
	<g>
		<path class="st0" d="M14.6,167.66c1.21-7.12,6.41-12.42,12.62-15.7c7.45-3.93,16.05-4.68,24.33-4.12
			c9.65,0.65,19.06,3.11,28.46,5.21c9.39,2.1,18.88,3.63,28.48,4.35c9.64,0.73,19.33,0.69,28.96-0.1c4.27-0.35,8.61-0.71,12.8-1.63
			c3.44-0.76,6.94-2.08,9.49-4.6c5.16-5.09,4.03-13.05-0.32-18.26c-5.19-6.21-14.18-6.78-21.5-4.77c-3.55,0.98-7.48,2.45-9.86,5.41
			c-2.27,2.83-2.06,6.67,0.87,8.96c2.86,2.24,6.92,2.58,10.42,2.27c3.85-0.34,7.61-1.57,10.88-3.64c1.63-1.03,3.12-2.26,4.45-3.65
			c0.82-0.86,0.4-2.13-0.66-2.51c-5.55-1.98-11.66-1.53-16.92,1.08c-1.73,0.86-0.21,3.45,1.51,2.59c4.56-2.26,9.83-2.48,14.61-0.78
			c-0.22-0.84-0.44-1.67-0.66-2.51c-4.72,4.93-12.67,8-19.43,5.95c-1.33-0.4-2.87-1.15-3.46-2.5c-0.63-1.45,0.17-2.9,1.2-3.93
			c2.47-2.48,6.34-3.6,9.67-4.3c6.89-1.44,14.75,0.07,18.27,6.74c1.36,2.57,1.89,5.67,0.91,8.46c-1.04,2.97-3.78,4.94-6.62,6.01
			c-3.39,1.28-7.03,1.7-10.61,2.1c-4.48,0.5-8.98,0.83-13.49,0.99c-9.01,0.33-18.05-0.01-27.01-1c-8.9-0.99-17.62-2.82-26.34-4.81
			c-8.63-1.97-17.35-3.92-26.22-4.26c-7.73-0.29-15.58,0.69-22.6,4.07c-5.82,2.81-11.15,7.32-13.74,13.36
			c-0.65,1.51-1.12,3.07-1.39,4.7C11.38,168.75,14.27,169.56,14.6,167.66L14.6,167.66z"/>
	</g>
</g>
</svg>
