<?xml version="1.0" encoding="utf-8"?>
<!-- Generator: Adobe Illustrator 26.3.1, SVG Export Plug-In . SVG Version: 6.00 Build 0)  -->
<svg version="1.1" id="圖層_1" xmlns="http://www.w3.org/2000/svg" xmlns:xlink="http://www.w3.org/1999/xlink" x="0px" y="0px"
	 viewBox="0 0 180 180" style="enable-background:new 0 0 180 180;" xml:space="preserve">
<style type="text/css">
	.st0{fill:#221714;}
</style>
<g>
	<g>
		<g>
			<path class="st0" d="M56.61,95.11c1.93,0,1.93-3,0-3C54.68,92.11,54.68,95.11,56.61,95.11L56.61,95.11z"/>
		</g>
	</g>
	<g>
		<g>
			<path class="st0" d="M56.17,91.74c-0.62,1.9-1.23,3.8-1.85,5.69c-0.54,1.65-1.38,3.49-1.04,5.26c0.5,2.65,3.04,3.61,5.47,3.24
				c5.32-0.81,8.91-6.47,10.68-11.09c2.01-5.25,2.11-11.34-0.03-16.57c-2.14-5.24-6.4-9.53-11.55-11.86
				c-5.24-2.37-11.14-2.72-16.57-0.72c-5.52,2.03-10.06,5.97-13.49,10.68c-8.22,11.26-8.57,25.92-10.01,39.25
				c-1.84,17.07-4.87,34.01-8.99,50.68c-0.46,1.87,2.43,2.67,2.89,0.8c3.3-13.35,5.89-26.86,7.75-40.49
				c0.91-6.71,1.57-13.44,2.27-20.17c0.66-6.29,1.53-12.61,3.58-18.62c3.29-9.64,11.11-19.63,22.04-20.42
				c10.33-0.75,20.05,7.48,20.61,17.88c0.31,5.7-1.76,11.54-5.85,15.57c-0.87,0.86-1.8,1.56-2.99,1.92
				c-0.71,0.22-1.95,0.54-2.58-0.05c-0.97-0.91,0.37-3.53,0.69-4.51c0.62-1.9,1.23-3.8,1.85-5.69
				C59.66,90.69,56.76,89.9,56.17,91.74L56.17,91.74z"/>
		</g>
	</g>
	<g>
		<g>
			<path class="st0" d="M71.81,115.65c8.53,9.73,21,14.72,33.11,18.36c13.87,4.17,28.29,6.53,42.76,7.06
				c8.27,0.3,16.54-0.01,24.76-0.92c1.9-0.21,1.92-3.21,0-3c-14.13,1.56-28.47,1.37-42.54-0.67c-6.95-1.01-13.83-2.45-20.6-4.32
				c-6.35-1.76-12.69-3.8-18.67-6.6c-6.28-2.95-12.12-6.78-16.71-12.03C72.66,112.07,70.55,114.2,71.81,115.65L71.81,115.65z"/>
		</g>
	</g>
	<g>
		<g>
			<path class="st0" d="M38.22,132.91c-0.85,10.01-3.98,19.74-9.06,28.4c-0.98,1.67,1.61,3.18,2.59,1.51
				c5.36-9.14,8.57-19.37,9.47-29.92C41.38,130.98,38.38,131,38.22,132.91L38.22,132.91z"/>
		</g>
	</g>
	<g>
		<g>
			<path class="st0" d="M53.87,137.19c2.88,9.56,6.05,19.04,9.49,28.42c0.66,1.8,3.56,1.02,2.89-0.8
				c-3.44-9.38-6.61-18.85-9.49-28.42C56.21,134.54,53.31,135.33,53.87,137.19L53.87,137.19z"/>
		</g>
	</g>
	<g>
		<g>
			<path class="st0" d="M69.28,136.97c19.63,16.32,44.76,25.56,70.27,26.12c7.14,0.16,14.29-0.4,21.33-1.61
				c1.9-0.33,1.09-3.22-0.8-2.89c-24.27,4.18-49.85-0.31-71.45-12.08c-6.1-3.33-11.88-7.22-17.23-11.67
				C69.93,133.62,67.79,135.73,69.28,136.97L69.28,136.97z"/>
		</g>
	</g>
</g>
</svg>
