<?xml version="1.0" encoding="utf-8"?>
<!-- Generator: Adobe Illustrator 26.3.1, SVG Export Plug-In . SVG Version: 6.00 Build 0)  -->
<svg version="1.1" id="圖層_1" xmlns="http://www.w3.org/2000/svg" xmlns:xlink="http://www.w3.org/1999/xlink" x="0px" y="0px"
	 viewBox="0 0 180 180" style="enable-background:new 0 0 180 180;" xml:space="preserve">
<style type="text/css">
	.st0{fill:#221714;}
</style>
<g>
	<g>
		<path class="st0" d="M16.25,151.87c1.95-4.29,5.35-8.06,9.72-9.95c4.44-1.92,8.89-1.06,12.69,1.79c4.06,3.05,7.21,7.06,11.7,9.59
			c4.57,2.57,9.85,3.94,15.1,3.83c11.46-0.24,20.8-7.34,31.12-11.32c5.01-1.93,10.59-3.36,15.98-2.51c2.71,0.43,5.16,1.46,7.47,2.92
			c2.36,1.5,4.56,3.28,7.07,4.54c11.46,5.73,24.57,0.59,35.41-4.12c1.77-0.77,0.24-3.35-1.51-2.59c-9.64,4.18-21.92,9.24-32.19,4.21
			c-2.46-1.2-4.61-2.91-6.9-4.4c-2.37-1.54-4.94-2.74-7.73-3.31c-5.39-1.09-10.98-0.17-16.13,1.55
			c-10.55,3.52-19.97,11.22-31.36,11.97c-5.35,0.35-10.74-0.94-15.35-3.68c-4.38-2.59-7.5-6.69-11.63-9.61
			c-4.49-3.17-9.88-3.77-14.93-1.6c-4.92,2.11-8.92,6.32-11.12,11.17C12.87,152.1,15.45,153.62,16.25,151.87L16.25,151.87z"/>
	</g>
</g>
<g>
	<g>
		<path class="st0" d="M24.31,33.88c0.77,3.25,1.17,6.53,1.22,9.86c0.01,0.81,0.68,1.5,1.5,1.5c0.8,0,1.51-0.69,1.5-1.5
			c-0.05-3.59-0.5-7.17-1.33-10.66c-0.19-0.79-1.08-1.26-1.85-1.05C24.55,32.26,24.12,33.09,24.31,33.88L24.31,33.88z"/>
	</g>
</g>
<g>
	<g>
		<path class="st0" d="M38.61,56.33c0.17,2.95,0.35,5.89,0.52,8.84c0.05,0.78,0.66,1.54,1.5,1.5c0.77-0.03,1.55-0.66,1.5-1.5
			c-0.17-2.95-0.35-5.89-0.52-8.84c-0.05-0.78-0.66-1.54-1.5-1.5C39.33,54.86,38.56,55.49,38.61,56.33L38.61,56.33z"/>
	</g>
</g>
<g>
	<g>
		<path class="st0" d="M23.71,84.12c0.16,2.79,0.33,5.58,0.49,8.37c0.05,0.78,0.66,1.54,1.5,1.5c0.77-0.03,1.55-0.66,1.5-1.5
			c-0.16-2.79-0.33-5.58-0.49-8.37c-0.05-0.78-0.66-1.54-1.5-1.5C24.44,82.66,23.66,83.28,23.71,84.12L23.71,84.12z"/>
	</g>
</g>
<g>
	<g>
		<path class="st0" d="M38.56,104.57c0,2.64,0,5.27,0,7.91c0,0.78,0.69,1.54,1.5,1.5c0.81-0.04,1.5-0.66,1.5-1.5
			c0-2.64,0-5.27,0-7.91c0-0.78-0.69-1.54-1.5-1.5C39.25,103.11,38.56,103.73,38.56,104.57L38.56,104.57z"/>
	</g>
</g>
<g>
	<g>
		<path class="st0" d="M59.97,76.16c0.02,0.15,0.05,0.31,0.07,0.46c0.02,0.1,0.03,0.21,0.04,0.31c0.02,0.17,0.03,0.21,0.02,0.11
			c-0.01-0.1-0.01-0.06,0.01,0.11c0.01,0.08,0.02,0.15,0.03,0.23c0.02,0.15,0.04,0.31,0.06,0.46c0.07,0.64,0.14,1.29,0.19,1.94
			c0.1,1.29,0.16,2.59,0.17,3.88c0.01,0.78,0.69,1.54,1.5,1.5c0.81-0.04,1.51-0.66,1.5-1.5c-0.02-2.78-0.27-5.55-0.69-8.3
			c-0.12-0.78-1.14-1.28-1.85-1.05C60.17,74.58,59.84,75.32,59.97,76.16L59.97,76.16z"/>
	</g>
</g>
<g>
	<g>
		<path class="st0" d="M53.93,29.32c0.17,2.95,0.34,5.89,0.51,8.84c0.05,0.78,0.66,1.54,1.5,1.5c0.77-0.03,1.55-0.66,1.5-1.5
			c-0.17-2.95-0.34-5.89-0.51-8.84c-0.05-0.78-0.66-1.54-1.5-1.5C54.66,27.86,53.89,28.48,53.93,29.32L53.93,29.32z"/>
	</g>
</g>
<g>
	<g>
		<path class="st0" d="M76.3,51.28c-0.53,2.74-0.73,5.53-0.52,8.31c0.06,0.78,0.65,1.54,1.5,1.5c0.76-0.03,1.56-0.66,1.5-1.5
			c-0.1-1.3-0.12-2.6-0.04-3.89c0.04-0.64,0.1-1.27,0.17-1.9c0.06-0.5-0.05,0.29,0.03-0.21c0.02-0.15,0.04-0.3,0.07-0.45
			c0.06-0.35,0.12-0.7,0.19-1.05c0.15-0.77-0.22-1.66-1.05-1.85C77.4,50.06,76.46,50.45,76.3,51.28L76.3,51.28z"/>
	</g>
</g>
<g>
	<g>
		<path class="st0" d="M99.97,27c0,3.88,0,7.75,0,11.63c0,1.93,3,1.93,3,0c0-3.88,0-7.75,0-11.63C102.97,25.07,99.97,25.06,99.97,27
			L99.97,27z"/>
	</g>
</g>
<g>
	<g>
		<path class="st0" d="M91.49,81.78c-0.46,3.4-0.56,6.83-0.32,10.25c0.06,0.81,0.65,1.5,1.5,1.5c0.77,0,1.56-0.69,1.5-1.5
			c-0.24-3.42-0.13-6.85,0.32-10.25c0.11-0.8-0.77-1.5-1.5-1.5C92.09,80.28,91.6,80.98,91.49,81.78L91.49,81.78z"/>
	</g>
</g>
<g>
	<g>
		<path class="st0" d="M68.34,116.67c0.16,3.88,0.31,7.75,0.47,11.63c0.03,0.81,0.67,1.5,1.5,1.5c0.79,0,1.53-0.69,1.5-1.5
			c-0.16-3.88-0.31-7.75-0.47-11.63c-0.03-0.81-0.67-1.5-1.5-1.5C69.05,115.17,68.3,115.85,68.34,116.67L68.34,116.67z"/>
	</g>
</g>
<g>
	<g>
		<path class="st0" d="M111.28,110.7c-0.2,1.33-0.2,2.59,0,3.92c0.18,1.2,0.59,2.35,1.13,3.43c0.35,0.7,1.4,0.96,2.05,0.54
			c0.72-0.46,0.91-1.3,0.54-2.05c-0.06-0.13-0.12-0.26-0.19-0.39c-0.16-0.33,0.12,0.31-0.02-0.04c-0.09-0.24-0.18-0.47-0.26-0.71
			c-0.15-0.48-0.27-0.97-0.35-1.47c-0.01-0.07-0.02-0.14-0.03-0.21c0.01,0.06,0.02,0.12,0.03,0.18c-0.05-0.12-0.03-0.3-0.04-0.43
			c-0.02-0.25-0.03-0.5-0.03-0.75c0-0.25,0.01-0.5,0.02-0.76c0.01-0.11,0.02-0.22,0.03-0.32c0.01-0.07,0.01-0.14,0.02-0.21
			c-0.03,0.22-0.03,0.25-0.01,0.08c0.06-0.41,0.07-0.78-0.15-1.16c-0.18-0.31-0.54-0.61-0.9-0.69
			C112.42,109.49,111.41,109.87,111.28,110.7L111.28,110.7z"/>
	</g>
</g>
<g>
	<g>
		<path class="st0" d="M123.15,70.63c-0.26,2.78-0.05,5.6,0.58,8.32c0.18,0.77,1.1,1.29,1.85,1.05c0.8-0.26,1.24-1.02,1.05-1.85
			c-0.15-0.64-0.26-1.28-0.37-1.92c-0.06-0.35,0.01,0.13-0.03-0.2c-0.02-0.17-0.04-0.35-0.06-0.52c-0.03-0.32-0.06-0.65-0.08-0.97
			c-0.08-1.3-0.06-2.61,0.06-3.91c0.07-0.78-0.74-1.53-1.5-1.5C123.78,69.16,123.23,69.79,123.15,70.63L123.15,70.63z"/>
	</g>
</g>
<g>
	<g>
		<path class="st0" d="M134.86,27.93c0,3.57,0,7.13,0,10.7c0,0.81,0.69,1.5,1.5,1.5c0.81,0,1.5-0.69,1.5-1.5c0-3.57,0-7.13,0-10.7
			c0-0.81-0.69-1.5-1.5-1.5C135.54,26.43,134.86,27.11,134.86,27.93L134.86,27.93z"/>
	</g>
</g>
<g>
	<g>
		<path class="st0" d="M158.1,46.94c0.3,3.22,0.04,6.3-0.81,9.38c-0.21,0.76,0.26,1.67,1.05,1.85c0.79,0.18,1.62-0.24,1.85-1.05
			c0.91-3.3,1.23-6.77,0.91-10.18c-0.07-0.78-0.64-1.54-1.5-1.5C158.85,45.47,158.02,46.1,158.1,46.94L158.1,46.94z"/>
	</g>
</g>
<g>
	<g>
		<path class="st0" d="M140.39,89.24c0.17,3.1,0.34,6.2,0.51,9.3c0.04,0.78,0.66,1.54,1.5,1.5c0.78-0.03,1.55-0.66,1.5-1.5
			c-0.17-3.1-0.34-6.2-0.51-9.3c-0.04-0.78-0.66-1.54-1.5-1.5C141.12,87.78,140.35,88.4,140.39,89.24L140.39,89.24z"/>
	</g>
</g>
<g>
	<g>
		<path class="st0" d="M159.01,118.06c0.15,3.41,0.31,6.82,0.46,10.23c0.04,0.81,0.66,1.5,1.5,1.5c0.78,0,1.54-0.69,1.5-1.5
			c-0.15-3.41-0.31-6.82-0.46-10.23c-0.04-0.81-0.66-1.5-1.5-1.5C159.73,116.56,158.98,117.25,159.01,118.06L159.01,118.06z"/>
	</g>
</g>
</svg>
