<?xml version="1.0" encoding="utf-8"?>
<!-- Generator: Adobe Illustrator 26.3.1, SVG Export Plug-In . SVG Version: 6.00 Build 0)  -->
<svg version="1.1" id="圖層_1" xmlns="http://www.w3.org/2000/svg" xmlns:xlink="http://www.w3.org/1999/xlink" x="0px" y="0px"
	 viewBox="0 0 180 180" style="enable-background:new 0 0 180 180;" xml:space="preserve">
<style type="text/css">
	.st0{fill:#221714;}
</style>
<g>
	<g>
		<g>
			<path class="st0" d="M37.75,89.99c-3.44-1.82-7.13-3.65-11.14-3.13c-3.32,0.43-6.34,2.53-7.1,5.92
				c-0.71,3.17,0.41,6.66,2.85,8.81c2.72,2.39,6.46,3.21,10,2.77c-0.25-0.93-0.5-1.86-0.76-2.8c-2.95,1.26-6.01,2.66-8.08,5.22
				c-1.78,2.21-2.46,5.16-1.54,7.9c0.88,2.63,3.18,4.46,6.02,4.24c3.04-0.24,5.51-2.76,8.56-2.65c-0.35-0.85-0.71-1.71-1.06-2.56
				c-2.03,2.39-2.23,5.57-0.97,8.39c1.36,3.07,4.21,4.94,7.51,5.3c8.23,0.91,13.68-6.21,17.75-12.25c-0.86,0-1.73,0-2.59,0
				c3.2,4.69,7.86,10.42,14.34,8.7c5.47-1.45,6.6-7.68,6.76-12.52c-0.63,0.48-1.27,0.96-1.9,1.45c4.22,1.45,8.8,2.81,13.13,0.97
				c4.17-1.77,5.75-5.71,5.14-10.03c-0.33-2.3-1.11-4.51-1.36-6.82c-0.26-2.39,0-4.87-0.82-7.18c-1.28-3.6-4.49-6.52-8.3-7.17
				c-4.42-0.76-8.9,1.36-11.23,5.17c0.86,0,1.73,0,2.59,0c-2.64-4.62-6.87-9.66-12.66-9.79c-4.7-0.11-9.94,3.55-9.51,8.66
				c0.93-0.25,1.86-0.5,2.8-0.76c-2.93-4.05-7.91-6.24-12.88-5.37c-4.76,0.83-8.69,4.6-10.04,9.18c-0.55,1.86,2.35,2.65,2.89,0.8
				c1.04-3.51,3.99-6.29,7.6-7.02c3.66-0.74,7.67,0.92,9.84,3.93c0.78,1.08,2.93,0.88,2.8-0.76c-0.31-3.67,3.8-6.05,7.11-5.62
				c4.39,0.57,7.45,4.72,9.47,8.27c0.57,1,2.01,0.95,2.59,0c1.56-2.55,4.53-4.12,7.54-3.83c2.93,0.29,5.63,2.49,6.57,5.27
				c0.62,1.85,0.46,3.82,0.61,5.74c0.15,1.89,0.6,3.72,1.03,5.56c0.75,3.27,1.07,6.87-2.32,8.73c-3.7,2.03-8.1,0.44-11.77-0.82
				c-0.96-0.33-1.87,0.53-1.9,1.45c-0.11,3.4-0.58,8.57-4.56,9.63c-4.95,1.31-8.59-3.85-10.95-7.32c-0.65-0.96-1.94-0.97-2.59,0
				c-3.16,4.68-7.03,10.36-13.23,10.81c-2.43,0.18-4.93-0.61-6.27-2.75c-1.08-1.73-1.49-4.19-0.08-5.87
				c0.83-0.99,0.3-2.51-1.06-2.56c-2.55-0.09-4.6,1.27-6.88,2.17c-1.98,0.78-4,0.68-4.82-1.55c-1.92-5.24,4.47-8.12,8.24-9.73
				c1.34-0.57,0.69-2.97-0.76-2.8c-2.61,0.32-5.44,0-7.59-1.66c-1.83-1.41-2.86-3.84-2.37-6.13c0.53-2.5,2.91-3.73,5.31-3.82
				c3.07-0.11,5.89,1.43,8.52,2.82C37.94,93.48,39.46,90.89,37.75,89.99L37.75,89.99z"/>
		</g>
	</g>
	<g>
		<g>
			<path class="st0" d="M61.71,79.06c1.34-6.46,2.74-13.1,5.85-18.98c3.08-5.82,7.91-10.28,14.26-12.24
				c13.32-4.11,26.58,2.42,35.66,12.02c9.77,10.32,17.19,24.57,17.16,39.02c-0.01,6.86-1.72,13.76-5.34,19.62
				c-3.55,5.76-9.01,10.2-15.35,12.55c-6.25,2.31-13.07,2.65-19.46,0.71c-6.1-1.85-11.6-5.63-15.54-10.65
				c-1-1.28-1.88-2.65-2.66-4.07c-0.94-1.69-3.53-0.18-2.59,1.51c6.94,12.54,21.51,19.51,35.6,16.89
				c7.06-1.31,13.77-4.94,18.64-10.22c5.01-5.43,8.07-12.48,9.17-19.75c2.37-15.7-4.14-31.19-13.73-43.35
				c-8.9-11.3-22.24-20.16-37.2-18.27c-6.98,0.88-13.49,4.12-17.92,9.67c-4.47,5.6-6.7,12.54-8.31,19.42
				c-0.41,1.76-0.79,3.53-1.15,5.31C58.42,80.15,61.31,80.95,61.71,79.06L61.71,79.06z"/>
		</g>
	</g>
	<g>
		<g>
			<path class="st0" d="M46.59,49.1c2.94,2.04,5.88,4.08,8.83,6.12c0.65,0.45,1.69,0.14,2.05-0.54c0.4-0.77,0.15-1.57-0.54-2.05
				c-2.94-2.04-5.88-4.08-8.83-6.12c-0.65-0.45-1.69-0.14-2.05,0.54C45.64,47.82,45.9,48.63,46.59,49.1L46.59,49.1z"/>
		</g>
	</g>
	<g>
		<g>
			<path class="st0" d="M103.59,24.29c-0.03,0-0.05,0-0.08,0.01c0.25,0.07,0.5,0.14,0.76,0.2c-0.02-0.01-0.03-0.02-0.05-0.03
				c0.23,0.3,0.46,0.6,0.69,0.9c-0.09,0.36-0.18,0.73-0.28,1.09c-0.22,0.13-0.44,0.26-0.66,0.39c0.02-0.01,0.05-0.02,0.07-0.03
				c-0.27,0-0.53,0-0.8,0c-0.05-0.02-0.1-0.04-0.16-0.06c-0.18-0.18-0.36-0.36-0.54-0.54c-0.1-0.13,0.01-0.3-0.05-0.05
				c-0.07,0.26-0.05,0.57-0.07,0.84c-0.04,0.48-0.08,0.96-0.13,1.44c-0.09,1-0.18,2-0.27,3c-0.18,2-0.35,4-0.53,6
				c-0.07,0.81,0.74,1.5,1.5,1.5c0.87,0,1.43-0.69,1.5-1.5c0.28-3.2,0.57-6.4,0.85-9.6c0.12-1.4,0.52-3.73-1.51-3.94
				c-2.3-0.24-2.54,3.55-0.26,3.4c0.81-0.05,1.5-0.65,1.5-1.5C105.09,25.02,104.4,24.23,103.59,24.29L103.59,24.29z"/>
		</g>
	</g>
	<g>
		<g>
			<path class="st0" d="M81.13,141.34c-2.02,4.18-4.03,8.36-6.05,12.54c-0.35,0.73-0.2,1.62,0.54,2.05c0.66,0.38,1.7,0.19,2.05-0.54
				c2.02-4.18,4.03-8.36,6.05-12.54c0.35-0.73,0.2-1.62-0.54-2.05C82.53,140.42,81.49,140.61,81.13,141.34L81.13,141.34z"/>
		</g>
	</g>
	<g>
		<g>
			<path class="st0" d="M126.49,136.32c1.1,3.06,2.44,6.04,4.02,8.89c0.38,0.69,1.38,0.97,2.05,0.54c0.7-0.45,0.95-1.32,0.54-2.05
				c-1.52-2.74-2.69-5.33-3.71-8.18c-0.26-0.74-1.03-1.31-1.85-1.05C126.81,134.71,126.2,135.53,126.49,136.32L126.49,136.32z"/>
		</g>
	</g>
	<g>
		<g>
			<path class="st0" d="M136.55,60.94c2.49-1,5.04-1.83,7.65-2.45c1.3-0.31,3.4-0.51,3.34-2.33c-0.08-2.14-3.52-2.29-3.48-0.05
				c0.01,0.78,0.68,1.54,1.5,1.5c0.8-0.04,1.51-0.66,1.5-1.5c0-0.02,0-0.05,0-0.07c-0.07,0.25-0.14,0.5-0.2,0.76
				c0.01-0.02,0.02-0.03,0.03-0.05c-0.18,0.18-0.36,0.36-0.54,0.54c-0.55,0.23-1.01,0.19-1.39-0.13c-0.13-0.22-0.26-0.44-0.39-0.66
				c0.9-1.05,1.07-1.47,0.5-1.27c-0.1,0.02-0.21,0.05-0.31,0.07c-0.18,0.04-0.36,0.08-0.54,0.12c-0.42,0.09-0.84,0.19-1.26,0.29
				c-0.81,0.2-1.61,0.42-2.41,0.65c-1.62,0.48-3.22,1.05-4.79,1.68c-0.75,0.3-1.28,1-1.05,1.85
				C134.9,60.6,135.79,61.24,136.55,60.94L136.55,60.94z"/>
		</g>
	</g>
	<g>
		<g>
			<path class="st0" d="M144.7,99.24c4.58,2.23,9.17,4.46,13.75,6.69c0.73,0.35,1.62,0.2,2.05-0.54c0.39-0.66,0.19-1.7-0.54-2.05
				c-4.58-2.23-9.17-4.46-13.75-6.69c-0.73-0.35-1.62-0.2-2.05,0.54C143.78,97.85,143.97,98.89,144.7,99.24L144.7,99.24z"/>
		</g>
	</g>
	<g>
		<g>
			<path class="st0" d="M97.53,71.47c-0.09,0-0.17,0-0.26,0c-0.21-0.01-0.4,0.04-0.58,0.13c-0.19,0.06-0.35,0.16-0.48,0.31
				c-0.15,0.14-0.25,0.3-0.31,0.48c-0.09,0.18-0.14,0.37-0.13,0.58c0.02,0.13,0.04,0.27,0.05,0.4c0.07,0.25,0.2,0.47,0.39,0.66
				c0.1,0.08,0.2,0.16,0.3,0.23c0.23,0.14,0.49,0.2,0.76,0.2c0.09,0,0.17,0,0.26,0c0.21,0.01,0.4-0.04,0.58-0.13
				c0.19-0.06,0.35-0.16,0.48-0.31c0.15-0.14,0.25-0.3,0.31-0.48c0.09-0.18,0.14-0.37,0.13-0.58c-0.02-0.13-0.04-0.27-0.05-0.4
				c-0.07-0.25-0.2-0.47-0.39-0.66c-0.1-0.08-0.2-0.16-0.3-0.23C98.05,71.54,97.8,71.47,97.53,71.47L97.53,71.47z"/>
		</g>
	</g>
	<g>
		<g>
			<path class="st0" d="M105.03,72.66c1.93,0,1.93-3,0-3C103.1,69.66,103.1,72.66,105.03,72.66L105.03,72.66z"/>
		</g>
	</g>
	<g>
		<g>
			<path class="st0" d="M102.59,77.65c0.2,1.63,0.41,3.27,0.61,4.9c0.05,0.41,0.13,0.75,0.44,1.06c0.26,0.26,0.69,0.46,1.06,0.44
				c0.39-0.02,0.79-0.14,1.06-0.44c0.25-0.27,0.49-0.68,0.44-1.06c-0.2-1.63-0.41-3.27-0.61-4.9c-0.05-0.41-0.13-0.75-0.44-1.06
				c-0.26-0.26-0.69-0.46-1.06-0.44c-0.39,0.02-0.79,0.14-1.06,0.44C102.78,76.86,102.55,77.26,102.59,77.65L102.59,77.65z"/>
		</g>
	</g>
	<g>
		<g>
			<path class="st0" d="M99.81,90.31c3.11,4.15,9.41,1.13,12.34-1.67c0.59-0.56,0.56-1.56,0-2.12c-0.58-0.58-1.53-0.56-2.12,0
				c-1.26,1.21-2.81,2.12-4.5,2.59c-0.18,0.05-0.35,0.09-0.53,0.13c-0.09,0.02-0.57,0.08-0.29,0.05c-0.4,0.04-0.78,0.02-1.18,0.01
				c-0.23-0.01,0.32,0.08-0.07-0.01c-0.09-0.02-0.17-0.04-0.26-0.06c-0.1-0.03-0.51-0.2-0.25-0.07c-0.08-0.04-0.15-0.08-0.23-0.12
				c-0.03-0.02-0.32-0.22-0.17-0.1c0.14,0.11-0.36-0.41-0.16-0.14c-0.49-0.65-1.3-0.98-2.05-0.54
				C99.71,88.63,99.32,89.65,99.81,90.31L99.81,90.31z"/>
		</g>
	</g>
</g>
</svg>
