<?xml version="1.0" encoding="utf-8"?>
<!-- Generator: Adobe Illustrator 26.3.1, SVG Export Plug-In . SVG Version: 6.00 Build 0)  -->
<svg version="1.1" id="圖層_1" xmlns="http://www.w3.org/2000/svg" xmlns:xlink="http://www.w3.org/1999/xlink" x="0px" y="0px"
	 viewBox="0 0 180 180" style="enable-background:new 0 0 180 180;" xml:space="preserve">
<style type="text/css">
	.st0{fill:#221714;}
</style>
<g>
	<path class="st0" d="M48.69,29.53c-1.35-2.89-4.83-4.5-7.98-4c-3.15,0.5-5.84,2.88-7.1,5.81c-1.68,3.92-0.82,8.78,2.09,11.89
		s7.72,4.28,11.73,2.86c-2.97,3.89-4.95,8.54-5.7,13.38c-0.29,1.85-0.39,3.81,0.33,5.54c1.62,3.9,6.89,5.12,10.86,3.68
		c3.97-1.44,6.92-4.76,9.68-7.95c0.87,7.9,10.49,12.75,18.09,10.45c7.61-2.3,12.72-9.82,14.36-17.6c3.94,2.69,6.78,6.68,10.29,9.9
		c3.51,3.23,8.32,5.78,12.92,4.55c5.61-1.49,8.42-7.8,9.31-13.53c0.21-1.36,0.58-3.01,1.9-3.4c1.51-0.45,2.76,1.14,4.02,2.08
		c4.6,3.46,11.06-1.73,12.86-7.2c1.89-5.76,1.03-12.97-3.84-16.58c-4.87-3.61-13.64-0.71-13.75,5.35
		c-0.87-7.49-4.6-15.32-11.57-18.17c-6.98-2.86-16.76,2.21-16.22,9.73c-2.45-6.58-9.91-10.89-16.84-9.72
		c-6.93,1.17-12.56,7.68-12.72,14.71c0.27-6.12-4.99-12.22-11.12-12.04c-6.13,0.18-11.08,7.58-8.26,13.03"/>
</g>
<g>
	<g>
		<g>
			<path class="st0" d="M80.09,61.72c0.02-0.04,0.03-0.08,0.05-0.12c0.27-0.62,0.27-1.31-0.23-1.82c-1.81-1.82-4.43,1.22-2.22,2.73
				c1.04,0.72,2.66,0.37,3.84,0.32c1.58-0.06,3.16-0.11,4.74-0.17c6.32-0.23,12.64-0.46,18.96-0.69c-0.43-0.75-0.86-1.5-1.3-2.26
				c-4.55,6.9-8.85,13.96-12.89,21.17c-0.67,1.2,0.43,2.45,1.69,2.2c6.4-1.27,13.02-1.47,19.48-0.55c-0.3-0.73-0.6-1.47-0.9-2.2
				c-7.38,12.32-14.77,24.65-22.15,36.97c-0.99,1.66,1.6,3.17,2.59,1.51c7.38-12.32,14.77-24.65,22.15-36.97
				c0.45-0.75,0.08-2.06-0.9-2.2c-7.04-1.01-14.1-0.84-21.08,0.55c0.56,0.73,1.13,1.47,1.69,2.2c4.04-7.21,8.34-14.27,12.89-21.17
				c0.62-0.94-0.19-2.3-1.3-2.26c-4.41,0.16-8.81,0.32-13.22,0.48c-2.16,0.08-4.32,0.16-6.49,0.23c-1.08,0.04-2.16,0.08-3.24,0.12
				c-0.5,0.02-1,0.04-1.5,0.05c-0.33,0.01-0.67,0.02-1,0.04c-0.6-0.1-0.66,0.01-0.17,0.33c0.05,0.39,0.1,0.77,0.15,1.16
				c0.01-0.05,0.02-0.1,0.03-0.15c-0.23,0.3-0.46,0.6-0.69,0.9c-0.43-0.08-0.87-0.16-1.3-0.23c-0.08-0.61-0.16-1.21-0.23-1.82
				c-0.02,0.04-0.03,0.08-0.05,0.12C76.74,61.96,79.32,63.49,80.09,61.72L80.09,61.72z"/>
		</g>
	</g>
	<g>
		<g>
			<path class="st0" d="M76.65,61.1c-3.51,8.48-6.45,17.18-8.8,26.05c-0.27,1.03,0.49,1.79,1.45,1.9c8.15,0.96,16.3,1.93,24.45,2.89
				c-0.5-0.5-1-1-1.5-1.5c-0.83,8.84-2.03,17.63-3.57,26.37c-0.33,1.89,2.56,2.7,2.89,0.8c1.59-9,2.82-18.07,3.68-27.17
				c0.08-0.87-0.76-1.41-1.5-1.5c-8.15-0.96-16.3-1.93-24.45-2.89c0.48,0.63,0.96,1.27,1.45,1.9c2.35-8.87,5.29-17.57,8.8-26.05
				C80.28,60.12,77.38,59.34,76.65,61.1L76.65,61.1z"/>
		</g>
	</g>
</g>
<g>
	<g>
		<path class="st0" d="M31.5,93.78c-0.58,3.41-1.16,6.82-1.73,10.23c-0.14,0.8,0.21,1.62,1.05,1.85c0.72,0.2,1.71-0.24,1.85-1.05
			c0.58-3.41,1.16-6.82,1.73-10.23c0.14-0.8-0.21-1.62-1.05-1.85C32.62,92.53,31.63,92.97,31.5,93.78L31.5,93.78z"/>
	</g>
</g>
<g>
	<g>
		<path class="st0" d="M47.24,102.71c-0.43,3.27-0.85,6.54-1.28,9.81c-0.1,0.78,0.76,1.53,1.5,1.5c0.9-0.04,1.39-0.66,1.5-1.5
			c0.43-3.27,0.85-6.54,1.28-9.81c0.1-0.78-0.76-1.53-1.5-1.5C47.84,101.25,47.35,101.87,47.24,102.71L47.24,102.71z"/>
	</g>
</g>
<g>
	<g>
		<path class="st0" d="M34.99,127.49c-0.68,2.48-1,5.07-0.94,7.64c0.02,0.78,0.68,1.54,1.5,1.5c0.8-0.04,1.52-0.66,1.5-1.5
			c-0.03-1.2,0.03-2.4,0.17-3.59c0-0.03,0.07-0.48,0.02-0.15c0.02-0.14,0.04-0.27,0.06-0.41c0.05-0.32,0.11-0.64,0.17-0.95
			c0.12-0.59,0.26-1.17,0.41-1.75c0.21-0.76-0.26-1.66-1.05-1.85C36.04,126.26,35.21,126.68,34.99,127.49L34.99,127.49z"/>
	</g>
</g>
<g>
	<g>
		<path class="st0" d="M20,133.86c0.05,4.43-0.24,8.86-0.9,13.24c-0.12,0.8,0.2,1.61,1.05,1.85c0.71,0.19,1.72-0.24,1.85-1.05
			c0.7-4.65,1.06-9.34,1.01-14.04C22.98,131.93,19.98,131.92,20,133.86L20,133.86z"/>
	</g>
</g>
<g>
	<g>
		<path class="st0" d="M55.86,137.49c-0.23,3.28-0.47,6.56-0.7,9.83c-0.1,1.44-0.59,3.79,1.42,4.15c2.27,0.4,2.68-3.44,0.33-3.35
			c-0.81,0.03-1.5,0.67-1.5,1.5c0,0.79,0.69,1.53,1.5,1.5c0.03,0,0.05,0,0.08,0c-0.35-0.15-0.71-0.29-1.06-0.44
			c0.02,0.01,0.03,0.03,0.05,0.04c-0.13-0.22-0.26-0.44-0.39-0.66c0.01,0.02,0.01,0.05,0.02,0.07c0-0.27,0-0.53,0-0.8
			c0,0.06-0.02,0.12-0.05,0.17c0.13-0.22,0.26-0.44,0.39-0.66c0.06-0.04,0.12-0.09,0.17-0.13c0.25-0.07,0.5-0.14,0.76-0.2
			c-0.03,0-0.06-0.01-0.09-0.01c0.25,0.07,0.5,0.14,0.76,0.2c-0.04-0.02-0.07-0.04-0.11-0.07c0.18,0.18,0.36,0.36,0.54,0.54
			c0.13,0.17,0.04,0.38,0.07,0c0.01-0.25,0.03-0.49,0.05-0.74c0.04-0.53,0.08-1.07,0.11-1.6c0.07-1.02,0.15-2.05,0.22-3.07
			c0.15-2.09,0.3-4.18,0.45-6.27c0.06-0.81-0.73-1.5-1.5-1.5C56.5,135.99,55.92,136.68,55.86,137.49L55.86,137.49z"/>
	</g>
</g>
<g>
	<g>
		<path class="st0" d="M73.3,123.62c0.04,1.13-0.02,2.26-0.14,3.38c-0.05,0.43,0.05-0.31-0.02,0.12c-0.02,0.13-0.04,0.26-0.06,0.39
			c-0.05,0.3-0.11,0.6-0.17,0.9c-0.12,0.55-0.25,1.1-0.41,1.64c-0.22,0.75,0.27,1.67,1.05,1.85c0.8,0.18,1.61-0.24,1.85-1.05
			c0.68-2.34,0.99-4.79,0.91-7.22c-0.03-0.78-0.67-1.54-1.5-1.5C74.01,122.15,73.27,122.78,73.3,123.62L73.3,123.62z"/>
	</g>
</g>
<g>
	<g>
		<path class="st0" d="M103.57,139.01c0.08,2.86-0.07,5.96-0.45,8.63c0.98,0.13,1.96,0.27,2.95,0.4c0.02-0.31,0.04-0.62,0.06-0.93
			c0.05-0.78-0.73-1.53-1.5-1.5c-0.86,0.04-1.45,0.66-1.5,1.5c-0.02,0.31-0.04,0.62-0.06,0.93c-0.05,0.74,0.61,1.38,1.3,1.47
			c0.66,0.09,1.54-0.34,1.65-1.07c0.44-3.13,0.64-6.27,0.56-9.43c-0.02-0.78-0.67-1.54-1.5-1.5
			C104.27,137.55,103.54,138.17,103.57,139.01L103.57,139.01z"/>
	</g>
</g>
<g>
	<g>
		<path class="st0" d="M125.77,92.05c0,2.56,0,5.12,0,7.68c0,0.78,0.69,1.54,1.5,1.5c0.81-0.04,1.5-0.66,1.5-1.5
			c0-2.56,0-5.12,0-7.68c0-0.78-0.69-1.54-1.5-1.5C126.46,90.59,125.77,91.21,125.77,92.05L125.77,92.05z"/>
	</g>
</g>
<g>
	<g>
		<path class="st0" d="M145.4,83.94c0,3.27,0,6.54,0,9.81c0,0.78,0.69,1.54,1.5,1.5c0.81-0.04,1.5-0.66,1.5-1.5
			c0-3.27,0-6.54,0-9.81c0-0.78-0.69-1.54-1.5-1.5C146.08,82.48,145.4,83.1,145.4,83.94L145.4,83.94z"/>
	</g>
</g>
<g>
	<g>
		<path class="st0" d="M136.86,123.19c0,3.13,0,6.26,0,9.39c0,0.78,0.69,1.54,1.5,1.5c0.81-0.04,1.5-0.66,1.5-1.5
			c0-3.13,0-6.26,0-9.39c0-0.78-0.69-1.54-1.5-1.5C137.55,121.73,136.86,122.35,136.86,123.19L136.86,123.19z"/>
	</g>
</g>
<g>
	<g>
		<path class="st0" d="M136.01,153.05c0.05,2.43,0.31,4.86,0.72,7.26c0.14,0.78,1.13,1.28,1.85,1.05c0.83-0.27,1.19-1.01,1.05-1.85
			c-0.1-0.57-0.19-1.13-0.27-1.7c0.05,0.35-0.01-0.09-0.02-0.13c-0.02-0.13-0.03-0.26-0.05-0.4c-0.03-0.29-0.06-0.57-0.09-0.86
			c-0.11-1.12-0.17-2.25-0.2-3.38c-0.02-0.78-0.68-1.54-1.5-1.5C136.72,151.59,135.99,152.21,136.01,153.05L136.01,153.05z"/>
	</g>
</g>
<g>
	<g>
		<path class="st0" d="M163.29,109.97c0.1,1.33,0.13,2.66,0.08,3.99c-0.03,0.65-0.07,1.3-0.13,1.95c-0.03,0.31-0.07,0.62-0.11,0.93
			c-0.04,0.34,0.02-0.09-0.03,0.22c-0.03,0.21-0.06,0.41-0.1,0.62c-0.13,0.77,0.2,1.65,1.05,1.85c0.72,0.16,1.71-0.22,1.85-1.05
			c0.46-2.82,0.62-5.66,0.39-8.51c-0.06-0.78-0.65-1.54-1.5-1.5C164.03,108.5,163.22,109.13,163.29,109.97L163.29,109.97z"/>
	</g>
</g>
<g>
	<g>
		<path class="st0" d="M160.7,140.25c0.03,0.16,0.06,0.33,0.09,0.49c0.01,0.07,0.02,0.14,0.03,0.21c-0.02-0.16-0.02-0.15,0,0.03
			c0.03,0.28,0.06,0.57,0.08,0.85c0.04,0.64,0.04,1.28,0,1.92c-0.02,0.31-0.05,0.62-0.08,0.92c0.03-0.32-0.02,0.14-0.03,0.17
			c-0.03,0.16-0.05,0.33-0.09,0.49c-0.12,0.63-0.28,1.25-0.48,1.86c-0.24,0.75,0.28,1.67,1.05,1.85c0.82,0.19,1.59-0.25,1.85-1.05
			c0.88-2.76,1.01-5.7,0.48-8.54c-0.14-0.77-1.12-1.28-1.85-1.05C160.92,138.67,160.54,139.42,160.7,140.25L160.7,140.25z"/>
	</g>
</g>
</svg>
