<?xml version="1.0" encoding="utf-8"?>
<!-- Generator: Adobe Illustrator 26.3.1, SVG Export Plug-In . SVG Version: 6.00 Build 0)  -->
<svg version="1.1" id="圖層_1" xmlns="http://www.w3.org/2000/svg" xmlns:xlink="http://www.w3.org/1999/xlink" x="0px" y="0px"
	 viewBox="0 0 180 180" style="enable-background:new 0 0 180 180;" xml:space="preserve">
<style type="text/css">
	.st0{fill:#221714;}
</style>
<g>
	<g>
		<path class="st0" d="M154.7,28.73c1.53,11.89-2.29,23.53-7.28,34.18c-4.52,9.64-9.84,18.93-15.66,27.84
			c-11.47,17.56-25.2,33.62-40.74,47.71c-8.78,7.96-18.14,15.27-27.99,21.86c-1.6,1.07-0.1,3.67,1.51,2.59
			c17.81-11.92,34.06-26.16,48.21-42.25c14.13-16.06,26.25-33.95,35.75-53.13c5.93-11.96,10.95-25.23,9.2-38.81
			C157.46,26.84,154.46,26.81,154.7,28.73L154.7,28.73z"/>
	</g>
</g>
<g>
	<g>
		<path class="st0" d="M82.13,85.89c0.75,3.28,1.25,6.6,1.48,9.96c0.04,0.56,0.12,1.28,0.01,1.72c-0.04,0.15-0.11,0.23-0.07,0.22
			c-0.13,0.03-0.51,0.01-0.7,0.01c-1.73-0.01-3.45-0.03-5.18-0.04c-1.93-0.01-1.93,2.99,0,3c1.02,0.01,2.04,0.02,3.06,0.02
			c0.97,0.01,1.98,0.09,2.95-0.01c2.06-0.2,3-1.88,3-3.81c0-1.95-0.29-3.94-0.55-5.87c-0.27-2.02-0.64-4.02-1.09-6
			C84.59,83.21,81.7,84.01,82.13,85.89L82.13,85.89z"/>
	</g>
</g>
<g>
	<g>
		<path class="st0" d="M57.31,108.53c3.66,6.92,8.2,13.35,13.46,19.15c1.3,1.43,3.42-0.69,2.12-2.12
			c-5.09-5.61-9.44-11.84-12.99-18.54C59,105.31,56.41,106.83,57.31,108.53L57.31,108.53z"/>
	</g>
</g>
<g>
	<g>
		<path class="st0" d="M109.82,154.48c1.08,3.81,2.15,7.62,3.23,11.42c0.52,1.85,3.42,1.07,2.89-0.8
			c-1.08-3.81-2.15-7.62-3.23-11.42C112.19,151.82,109.29,152.61,109.82,154.48L109.82,154.48z"/>
	</g>
</g>
<g>
	<g>
		<path class="st0" d="M122.79,147.01c2.1,1.84,4.38,3.49,6.81,4.87c0.68,0.39,1.67,0.18,2.05-0.54c0.38-0.71,0.19-1.64-0.54-2.05
			c-1.14-0.65-2.25-1.36-3.32-2.12c-0.26-0.18-0.51-0.37-0.76-0.55c-0.13-0.09-0.25-0.19-0.38-0.28c-0.15-0.11,0.2,0.16-0.02-0.02
			c-0.06-0.05-0.12-0.1-0.18-0.15c-0.52-0.41-1.03-0.84-1.54-1.28c-0.59-0.52-1.55-0.62-2.12,0
			C122.27,145.46,122.16,146.46,122.79,147.01L122.79,147.01z"/>
	</g>
</g>
<g>
	<g>
		<path class="st0" d="M136.71,131.25c2.12,1.39,4.33,2.64,6.62,3.73c0.71,0.34,1.65,0.22,2.05-0.54c0.35-0.67,0.22-1.69-0.54-2.05
			c-2.29-1.09-4.5-2.33-6.62-3.73c-0.66-0.43-1.69-0.15-2.05,0.54C135.77,129.95,136,130.79,136.71,131.25L136.71,131.25z"/>
	</g>
</g>
<g>
	<g>
		<path class="st0" d="M149.35,112.62c2.72,0.83,5.44,1.67,8.15,2.5c0.75,0.23,1.67-0.27,1.85-1.05c0.18-0.81-0.24-1.6-1.05-1.85
			c-2.72-0.83-5.44-1.67-8.15-2.5c-0.75-0.23-1.67,0.27-1.85,1.05C148.12,111.59,148.55,112.38,149.35,112.62L149.35,112.62z"/>
	</g>
</g>
<g>
	<g>
		<path class="st0" d="M161.36,89.18c2.63,0.69,5.27,1.38,7.9,2.07c0.76,0.2,1.66-0.25,1.85-1.05c0.18-0.78-0.24-1.63-1.05-1.85
			c-2.63-0.69-5.27-1.38-7.9-2.07c-0.76-0.2-1.66,0.25-1.85,1.05C160.13,88.12,160.54,88.97,161.36,89.18L161.36,89.18z"/>
	</g>
</g>
<g>
	<g>
		<path class="st0" d="M70.06,64.22c0-0.25,0-0.5,0-0.75c0.01-0.21-0.04-0.4-0.13-0.58c-0.06-0.19-0.16-0.35-0.31-0.48
			c-0.14-0.15-0.3-0.25-0.48-0.31c-0.18-0.09-0.37-0.14-0.58-0.13c-0.13,0.02-0.27,0.04-0.4,0.05c-0.25,0.07-0.47,0.2-0.66,0.39
			c-0.08,0.1-0.16,0.2-0.23,0.3c-0.14,0.23-0.2,0.49-0.2,0.76c0,0.25,0,0.5,0,0.75c-0.01,0.21,0.04,0.4,0.13,0.58
			c0.06,0.19,0.16,0.35,0.31,0.48c0.14,0.15,0.3,0.25,0.48,0.31c0.18,0.09,0.37,0.14,0.58,0.13c0.13-0.02,0.27-0.04,0.4-0.05
			c0.25-0.07,0.47-0.2,0.66-0.39c0.08-0.1,0.16-0.2,0.23-0.3C69.99,64.75,70.05,64.49,70.06,64.22L70.06,64.22z"/>
	</g>
</g>
<g>
	<g>
		<path class="st0" d="M103.83,68.72c1.93,0,1.93-3,0-3C101.9,65.72,101.89,68.72,103.83,68.72L103.83,68.72z"/>
	</g>
</g>
</svg>
