<?xml version="1.0" encoding="utf-8"?>
<!-- Generator: Adobe Illustrator 26.3.1, SVG Export Plug-In . SVG Version: 6.00 Build 0)  -->
<svg version="1.1" id="圖層_1" xmlns="http://www.w3.org/2000/svg" xmlns:xlink="http://www.w3.org/1999/xlink" x="0px" y="0px"
	 viewBox="0 0 180 180" style="enable-background:new 0 0 180 180;" xml:space="preserve">
<style type="text/css">
	.st0{fill:#221714;}
</style>
<g>
	<g>
		<path class="st0" d="M39.94,9.05c5.05,5.67,1.81,14.91-0.87,20.92c-3.22,7.2-8.35,14.08-16.07,16.75
			c-4.14,1.43-8.78,1.67-12.85-0.11c-1.75-0.76-3.28,1.82-1.51,2.59c8.42,3.66,18.04,0.79,24.53-5.31
			c3.33-3.13,5.92-7.02,7.89-11.12c1.93-4.01,3.56-8.31,4.17-12.73c0.65-4.67,0.06-9.47-3.18-13.11
			C40.77,5.49,38.66,7.62,39.94,9.05L39.94,9.05z"/>
	</g>
</g>
<g>
	<g>
		<path class="st0" d="M15.06,62.06c-0.21,3.94-0.42,7.88-0.63,11.82c-0.04,0.81,0.72,1.5,1.5,1.5c0.85,0,1.46-0.69,1.5-1.5
			c0.21-3.94,0.42-7.88,0.63-11.82c0.04-0.81-0.72-1.5-1.5-1.5C15.71,60.56,15.11,61.25,15.06,62.06L15.06,62.06z"/>
	</g>
</g>
<g>
	<g>
		<path class="st0" d="M33.1,53.87c1.61,3.23,3.23,6.46,4.84,9.69c0.36,0.72,1.39,0.93,2.05,0.54c0.74-0.43,0.9-1.32,0.54-2.05
			c-1.61-3.23-3.23-6.46-4.84-9.69c-0.36-0.72-1.39-0.93-2.05-0.54C32.9,52.25,32.74,53.14,33.1,53.87L33.1,53.87z"/>
	</g>
</g>
<g>
	<g>
		<path class="st0" d="M51.19,43.86c3.84,2.18,7.5,4.66,10.92,7.45c0.63,0.51,1.51,0.61,2.12,0c0.53-0.53,0.63-1.61,0-2.12
			c-3.62-2.95-7.47-5.61-11.53-7.92C51.02,40.31,49.51,42.9,51.19,43.86L51.19,43.86z"/>
	</g>
</g>
<g>
	<g>
		<path class="st0" d="M59.49,24.3c2.95,1.57,5.91,3.15,8.86,4.72c0.69,0.37,1.66,0.2,2.05-0.54c0.37-0.7,0.2-1.66-0.54-2.05
			c-2.95-1.57-5.91-3.15-8.86-4.72c-0.69-0.37-1.66-0.2-2.05,0.54C58.59,22.94,58.75,23.91,59.49,24.3L59.49,24.3z"/>
	</g>
</g>
<g>
	<g>
		<path class="st0" d="M132.51,56c-2.43,6.82-6.91,12.94-12.72,17.25c-2.98,2.21-6.59,4.47-10.43,4.41
			c-2.92-0.04-5.85-2.16-5.83-5.31c0-0.64,0.68-2.9,1.49-2.31c1.05,0.77,0.35,3.28,0.1,4.21c-1,3.74-3.38,6.95-5.96,9.77
			c-5.48,5.99-11.93,11.1-18.58,15.72c-7.65,5.3-15.71,9.97-23.77,14.62c-1.67,0.97-0.16,3.56,1.51,2.59
			c8.5-4.91,17.01-9.83,25.03-15.51c3.94-2.79,7.77-5.75,11.39-8.95c3.55-3.14,7.04-6.48,9.79-10.35c2.26-3.18,4.71-7.82,3.8-11.86
			c-0.36-1.62-1.51-3.24-3.3-3.33c-1.94-0.1-3.46,1.51-4.11,3.2c-1.28,3.31,0.61,7.13,3.37,9.04c3.75,2.61,8.81,1.36,12.56-0.55
			c8.69-4.42,15.31-12.76,18.55-21.85C136.05,54.98,133.15,54.19,132.51,56L132.51,56z"/>
	</g>
</g>
<g>
	<g>
		<path class="st0" d="M112.6,116.46c-0.36,0.71-0.76,1.4-1.2,2.05c-0.11,0.16-0.22,0.31-0.33,0.46c-0.06,0.08-0.13,0.2-0.2,0.27
			c0.13-0.13,0.1-0.13-0.01,0.01c-0.25,0.31-0.51,0.61-0.78,0.9c-0.52,0.57-1.09,1.1-1.68,1.6c-0.07,0.06-0.15,0.12-0.22,0.18
			c-0.05,0.04-0.33,0.29-0.05,0.04c-0.14,0.12-0.31,0.23-0.46,0.34c-0.34,0.24-0.69,0.47-1.04,0.68c-0.67,0.41-0.98,1.36-0.54,2.05
			c0.43,0.67,1.33,0.97,2.05,0.54c2.99-1.82,5.49-4.48,7.05-7.61c0.35-0.7,0.21-1.66-0.54-2.05
			C113.97,115.57,112.98,115.72,112.6,116.46L112.6,116.46z"/>
	</g>
</g>
<g>
	<g>
		<path class="st0" d="M54.45,148.14c-4.38,3.56-9.53,6.12-14.99,7.56c-2.69,0.71-5.44,1.14-8.22,1.26
			c-1.38,0.06-2.77,0.06-4.16-0.03c-1.02-0.06-2.3-0.15-2.8-1.17c-0.85-1.74-3.43-0.22-2.59,1.51c1.35,2.77,5.04,2.72,7.67,2.72
			c3.25,0.01,6.51-0.38,9.68-1.11c6.43-1.48,12.41-4.47,17.52-8.63C58.07,149.04,55.94,146.93,54.45,148.14L54.45,148.14z"/>
	</g>
</g>
<g>
	<g>
		<path class="st0" d="M156,137.25c-3.25,5.87-9.8,10.43-16.67,10.44c-1.34,0-4.18-0.62-3.85-2.58c0.07-0.41,0.51-0.93,0.97-0.91
			c0.59,0.02,0.61,0.71,0.55,1.18c-0.19,1.57-1.28,3.07-2.14,4.34c-0.97,1.46-2.08,2.81-3.3,4.07c-2.79,2.88-6.15,5.22-9.85,6.76
			c-0.75,0.31-1.27,0.99-1.05,1.85c0.19,0.71,1.1,1.36,1.85,1.05c4.55-1.9,8.66-4.71,11.97-8.39c1.64-1.82,3.1-3.83,4.28-5.98
			c0.99-1.8,1.85-4.22,0.73-6.16c-1.09-1.87-3.47-2.17-5.19-1.02c-1.96,1.31-2.29,3.87-1.1,5.82c2.73,4.48,9.45,3.04,13.47,1.44
			c5.03-2,9.29-5.66,11.93-10.4C159.53,137.07,156.94,135.56,156,137.25L156,137.25z"/>
	</g>
</g>
</svg>
