<?xml version="1.0" encoding="utf-8"?>
<!-- Generator: Adobe Illustrator 26.3.1, SVG Export Plug-In . SVG Version: 6.00 Build 0)  -->
<svg version="1.1" id="圖層_1" xmlns="http://www.w3.org/2000/svg" xmlns:xlink="http://www.w3.org/1999/xlink" x="0px" y="0px"
	 viewBox="0 0 60 60" style="enable-background:new 0 0 60 60;" xml:space="preserve">
<style type="text/css">
	.st0{fill:none;stroke:#000000;stroke-width:2;stroke-linecap:round;stroke-miterlimit:10;}
	.st1{fill:none;stroke:#000000;stroke-width:1.5;stroke-linecap:round;stroke-linejoin:round;stroke-miterlimit:10;}
</style>
<path class="st0" d="M21.4,20.9c0.1-0.2,1.7-7.1-4.9-4.1C10.3,19.7,3.6,19.3,5,23.7s0.9,9.1,7.7,6.3C19.2,27.3,20.8,22,21.4,20.9z"
	/>
<path class="st0" d="M42,26.7c0,0-0.5-6.3,3.1-6.5c3.6-0.2,3.6-2,8.1,5.8s0,9.4,0,9.4S42.9,39.1,42.5,33C42,26.7,42,26.7,42,26.7z"
	/>
<path class="st0" d="M21.3,17.2c0,0,11.2-7.6,22.6,3.5"/>
<path class="st0" d="M12.7,30c0,0-1,16,12.6,18.3c13.6,2.3,15.7-2.4,19.8-12.1"/>
<circle cx="25.4" cy="30.3" r="1"/>
<circle cx="35" cy="32" r="1"/>
<path d="M28,37.4c-0.2-0.2-2.3-3.1,0.9-2.4C32,35.5,28,37.4,28,37.4z"/>
<path class="st1" d="M18.6,40.6c0,0,6.5,0.9,9.5-3.6c0,0,1.8,6.4,6.6,5.9"/>
</svg>
